<?xml version="1.0" encoding="utf-8"?>
<!-- Generator: Adobe Illustrator 27.1.1, SVG Export Plug-In . SVG Version: 6.00 Build 0)  -->
<svg version="1.1" id="Layer_1" xmlns="http://www.w3.org/2000/svg" xmlns:xlink="http://www.w3.org/1999/xlink" x="0px" y="0px"
	 viewBox="0 0 16 16" style="enable-background:new 0 0 16 16;" xml:space="preserve">
<style type="text/css">
	.st0{fill:#1E1E1E;}
	.st1{fill:none;}
	.st2{fill:url(#SVGID_1_);}
	.st3{fill:url(#SVGID_00000160882640390354641830000007203975216890603905_);}
</style>
<path class="st0" d="M11.8,16H4.2C1.9,16,0,14.1,0,11.8V4.2C0,1.9,1.9,0,4.2,0h7.7C14.1,0,16,1.9,16,4.2v7.7
	C16,14.1,14.1,16,11.8,16z"/>
<g transform="translate(-107 -210)">
	<g transform="translate(330 83)">
		<rect x="-221.6" y="127.2" class="st1" width="13.1" height="15.6"/>
		<g transform="translate(-349 18)">
			
				<radialGradient id="SVGID_1_" cx="-354.5154" cy="609.4699" r="0.1018" gradientTransform="matrix(49 0 0 -61.485 17505.2559 37591.0039)" gradientUnits="userSpaceOnUse">
				<stop  offset="0" style="stop-color:#000000"/>
				<stop  offset="0.301" style="stop-color:#112648"/>
				<stop  offset="0.703" style="stop-color:#316CCC"/>
				<stop  offset="1" style="stop-color:#3B82F6"/>
			</radialGradient>
			<path class="st2" d="M134,110.5c2.8,0,5.1,4.9,5.1,7.7c0,2.8-2.3,5.1-5.1,5.1s-5.1-2.3-5.1-5.1
				C128.9,115.4,131.2,110.5,134,110.5z"/>
			
				<linearGradient id="SVGID_00000151544184587878838900000001972696097740129424_" gradientUnits="userSpaceOnUse" x1="-347.4024" y1="603.9778" x2="-347.4024" y2="603.7696" gradientTransform="matrix(28.06 0 0 -35.211 9882.1113 21379.9609)">
				<stop  offset="0" style="stop-color:#0247B9"/>
				<stop  offset="1" style="stop-color:#488AF5"/>
			</linearGradient>
			<path style="fill:url(#SVGID_00000151544184587878838900000001972696097740129424_);" d="M134,113.3c1.6,0,2.9,2.8,2.9,4.4
				c0,1.6-1.3,2.9-2.9,2.9c-1.6,0-2.9-1.3-2.9-2.9c0,0,0,0,0,0C131.1,116.1,132.4,113.3,134,113.3z"/>
		</g>
	</g>
</g>
</svg>
